<svg xmlns="http://www.w3.org/2000/svg" viewBox="0 0 16 16" fill="none" class="icon-root"><title>Pricing FAQ Accordion icon</title><style>.icon-root{color-scheme:light dark}.s{fill:currentColor}.sd{fill:currentColor;opacity:.22}.a{fill:var(--icon-color-accent,#ff8700)}</style><path class="sd" d="M4.2 3.1h7.6a2 2 0 0 1 2 2v4.4a2 2 0 0 1-2 2H7.6l-3.1 2.3v-2.3a2 2 0 0 1-2-2V5.1a2 2 0 0 1 2-2z"/><path class="a" d="M7 6.5c.25-.55.8-.92 1.5-.92.9 0 1.55.5 1.55 1.3 0 1.05-1.45 1.05-1.45 1.95v.2H7.4v-.3c0-1.15 1.45-1.2 1.45-1.85 0-.32-.28-.55-.7-.55-.4 0-.68.2-.85.5z"/><circle class="s" cx="8.15" cy="10.3" r=".72"/></svg>
