<svg xmlns="http://www.w3.org/2000/svg" viewBox="0 0 16 16" fill="none" stroke="currentColor" stroke-width="1.35" stroke-linecap="round" stroke-linejoin="round" class="icon-root">
  <title>FAQ Pricing icon</title>
  <style>.icon-root{color:var(--icon-color-primary,currentColor)}.accent{stroke:var(--icon-color-accent,currentColor);fill:none}.accent-fill,.no-stroke{stroke:none;fill:var(--icon-color-accent,currentColor)}</style>
  <path d="M4 5.25h7.5a1.5 1.5 0 0 1 1.5 1.5v3.5a1.5 1.5 0 0 1-1.5 1.5H7l-3 2v-2.5a1.5 1.5 0 0 1-1.5-1.5v-3A1.5 1.5 0 0 1 4 5.25z"/><path d="M8 9.4v-.2c0-.8 1.4-.8 1.4-1.8 0-.7-.55-1.15-1.35-1.15-.7 0-1.2.3-1.45.85" class="accent"/><path d="M8 11h.1"/>
  <g class="icon-signature"><circle cx="12.05" cy="2.25" r=".24" class="accent-fill"/><circle cx="13.45" cy="5.05" r=".24" class="accent-fill"/><circle cx="12.75" cy="6.45" r=".24" class="accent-fill"/><path d="M13.7 6.9l-1.65 1.15" class="accent"/><path d="M13.2 8.4v.9" class="accent"/></g>
</svg>
