<svg xmlns="http://www.w3.org/2000/svg" viewBox="0 0 16 16" fill="none" stroke="currentColor" stroke-width="1.35" stroke-linecap="round" stroke-linejoin="round" class="icon-root">
  <title>Case Study Featured icon</title>
  <style>.icon-root{color:var(--icon-color-primary,currentColor)}.accent{stroke:var(--icon-color-accent,currentColor);fill:none}.accent-fill,.no-stroke{stroke:none;fill:var(--icon-color-accent,currentColor)}</style>
  <path d="M4 5.25h7.5a1.5 1.5 0 0 1 1.5 1.5v3.5a1.5 1.5 0 0 1-1.5 1.5H7l-3 2v-2.5a1.5 1.5 0 0 1-1.5-1.5v-3A1.5 1.5 0 0 1 4 5.25z"/><path d="m9.75 2.75.45.9 1 .15-.72.7.17 1-.9-.48-.9.48.17-1-.72-.7 1-.15z" class="accent"/>
  <g class="icon-signature"><circle cx="13.45" cy="2.25" r=".24" class="accent-fill"/><circle cx="12.05" cy="3.65" r=".24" class="accent-fill"/><circle cx="12.05" cy="5.05" r=".24" class="accent-fill"/><circle cx="13.45" cy="5.05" r=".24" class="accent-fill"/><circle cx="12.75" cy="6.45" r=".24" class="accent-fill"/><path d="M12.05 6.9h1.65" class="accent"/><circle cx="12.75" cy="8.85" r=".2" class="accent-fill"/></g>
</svg>
