<svg xmlns="http://www.w3.org/2000/svg" viewBox="0 0 16 16" fill="none" class="icon-root"><title>Single Testimonial icon</title><style>.icon-root{color-scheme:light dark}.s{fill:currentColor}.sd{fill:currentColor;opacity:.22}.a{fill:var(--icon-color-accent)}</style><path class="sd" d="M4 4.5h8a2 2 0 0 1 2 2v3.4a2 2 0 0 1-2 2H7.4l-3.1 1.9v-1.9H4a2 2 0 0 1-2-2V6.5a2 2 0 0 1 2-2z"/><path class="a icon-signature" d="M8 5.4l.78 1.58 1.74.25-1.26 1.23.3 1.73L8 9.37l-1.56.82.3-1.73L5.48 7.23l1.74-.25z"/><rect class="s" x="5.4" y="10" width="5.2" height="1.2" rx=".6" opacity=".55"/></svg>