<svg xmlns="http://www.w3.org/2000/svg" viewBox="0 0 16 16" fill="none" class="icon-root"><title>Brand Story icon</title><style>.icon-root{color-scheme:light dark}.s{fill:currentColor}.sd{fill:currentColor;opacity:.22}.a{fill:var(--icon-color-accent)}</style><path class="sd" d="M9.6 2.8h2.4a1 1 0 0 1 1 1v9l-2.2-1.8L8.6 11.8v-8a1 1 0 0 1 1-1z"/><rect class="s" x="2.6" y="3.6" width="4.4" height="1.4" rx=".7"/><rect class="s" x="2.6" y="6.3" width="4.4" height="1.3" rx=".65" opacity=".55"/><rect class="s" x="2.6" y="8.5" width="4.4" height="1.3" rx=".65" opacity=".55"/><rect class="s" x="2.6" y="10.7" width="3" height="1.3" rx=".65" opacity=".55"/><path class="a icon-signature" d="M10.8 7.6 9.95 6.7a.78.78 0 0 1 1.1-1.1l.05.05.05-.05a.78.78 0 0 1 1.1 1.1z"/></svg>
