<svg xmlns="http://www.w3.org/2000/svg" viewBox="0 0 16 16" fill="none" class="icon-root"><title>Callback Request icon</title><style>.icon-root{color-scheme:light dark}.s{fill:currentColor}.sd{fill:currentColor;opacity:.22}.a{fill:var(--icon-color-accent,#ff8700)}</style><path class="sd" d="M5.2 4.1c.7-.1 1.4.3 1.7 1l.5 1.1c.2.5.1 1-.3 1.4l-.5.5c.5 1 1.3 1.8 2.3 2.3l.5-.5c.4-.4.9-.5 1.4-.3l1.1.5c.7.3 1.1 1 1 1.7l-.2 1c-.1.6-.6 1-1.2 1-3.9-.1-7-3.2-7.1-7.1 0-.6.4-1.1 1-1.2z"/><path class="a" d="M10.4 3.1h3.1v3.1l-1.15-1.15-2 2-.8-.8 2-2z"/></svg>