<svg xmlns="http://www.w3.org/2000/svg" viewBox="0 0 16 16" fill="none" stroke="currentColor" stroke-width="1.35" stroke-linecap="round" stroke-linejoin="round" class="icon-root">
  <title>GDPR Banner icon</title>
  <style>.icon-root{color:var(--icon-color-primary,currentColor)}.accent{stroke:var(--icon-color-accent,currentColor);fill:none}.accent-fill,.no-stroke{stroke:none;fill:var(--icon-color-accent,currentColor)}</style>
  <path d="M8 2.75 12 4.5v3.25c0 2.65-1.5 4.35-4 5.5-2.5-1.15-4-2.85-4-5.5V4.5z"/><path d="M6.5 7.75V6.6A1.5 1.5 0 0 1 8 5.1a1.5 1.5 0 0 1 1.5 1.5v1.15"/><rect x="6" y="7.75" width="4" height="3" rx=".8" class="accent"/>
  <g class="icon-signature"><circle cx="12.05" cy="2.25" r=".24" class="accent-fill"/><circle cx="12.05" cy="3.65" r=".24" class="accent-fill"/><circle cx="13.45" cy="3.65" r=".24" class="accent-fill"/><circle cx="12.05" cy="5.05" r=".24" class="accent-fill"/><circle cx="13.45" cy="5.05" r=".24" class="accent-fill"/><circle cx="12.75" cy="6.45" r=".24" class="accent-fill"/><path d="M12.05 6.9h1.65" class="accent"/><path d="M13.2 8.4v.9" class="accent"/></g>
</svg>
