<svg xmlns="http://www.w3.org/2000/svg" viewBox="0 0 16 16" fill="none" class="icon-root"><title>Content Columns icon</title><style>.icon-root{color-scheme:light dark}.s{fill:currentColor}.sd{fill:currentColor;opacity:.22}.a{fill:var(--icon-color-accent)}</style><rect class="sd" x="2.4" y="3" width="11.2" height="10" rx="1.6"/><rect class="a icon-signature" x="3.4" y="4.7" width="2.4" height=".9" rx=".45"/><rect class="s" x="3.4" y="6" width="2.4" height=".9" rx=".45" opacity=".55"/><rect class="s" x="3.4" y="7.3" width="2.4" height=".9" rx=".45" opacity=".55"/><rect class="s" x="3.4" y="8.6" width="2.4" height=".9" rx=".45" opacity=".55"/><rect class="s" x="3.4" y="9.9" width="1.5" height=".9" rx=".45" opacity=".55"/><rect class="s" x="6.5" y="4.7" width="2.4" height=".9" rx=".45" opacity=".55"/><rect class="s" x="6.5" y="6" width="2.4" height=".9" rx=".45" opacity=".55"/><rect class="s" x="6.5" y="7.3" width="2.4" height=".9" rx=".45" opacity=".55"/><rect class="s" x="6.5" y="8.6" width="2.4" height=".9" rx=".45" opacity=".55"/><rect class="s" x="6.5" y="9.9" width="1.5" height=".9" rx=".45" opacity=".55"/><rect class="s" x="9.6" y="4.7" width="2" height=".8" rx=".4" opacity=".4"/><rect class="s" x="9.6" y="5.9" width="2" height=".8" rx=".4" opacity=".4"/><rect class="s" x="9.6" y="7.1" width="2" height=".8" rx=".4" opacity=".4"/><rect class="s" x="9.6" y="8.3" width="1.3" height=".8" rx=".4" opacity=".4"/></svg>
