<svg xmlns="http://www.w3.org/2000/svg" viewBox="0 0 16 16" fill="none" class="icon-root"><title>Testimonial Hero icon</title><style>.icon-root{color-scheme:light dark}.s{fill:currentColor}.sd{fill:currentColor;opacity:.22}.a{fill:var(--icon-color-accent)}</style><path class="sd" d="M3.6 3.4h8.8a1.6 1.6 0 0 1 1.6 1.6v4.6a1.6 1.6 0 0 1-1.6 1.6H7.4l-2.6 2.1v-2.1H3.6A1.6 1.6 0 0 1 2 9.6V5a1.6 1.6 0 0 1 1.6-1.6z"/><rect class="s" x="4.2" y="8.4" width="4.4" height="1.2" rx=".6" opacity=".55"/><path class="a icon-signature" d="M5.2 5.4c-1 .5-1.5 1.3-1.5 2.4h1.5V5.4zm3 0c-1 .5-1.5 1.3-1.5 2.4h1.5V5.4z"/></svg>