<svg xmlns="http://www.w3.org/2000/svg" viewBox="0 0 16 16" fill="none" class="icon-root"><title>Sitemap Grid icon</title><style>.icon-root{color-scheme:light dark}.s{fill:currentColor}.sd{fill:currentColor;opacity:.22}.a{fill:var(--icon-color-accent)}</style><path class="s" d="M8 5.3a.6.6 0 0 0-.6.6v1.05H4.6a.6.6 0 0 0-.6.6V10h1.2V8.55h2.2V10h1.2V8.55h2.2V10H12V8.15a.6.6 0 0 0-.6-.6H8.6V5.9A.6.6 0 0 0 8 5.3z" opacity=".55"/><rect class="a icon-signature" x="6.3" y="2.6" width="3.4" height="2.5" rx=".7"/><rect class="sd" x="2.5" y="10.4" width="3.4" height="2.5" rx=".7"/><rect class="sd" x="10.1" y="10.4" width="3.4" height="2.5" rx=".7"/></svg>
