<svg xmlns="http://www.w3.org/2000/svg" viewBox="0 0 16 16" fill="none" class="icon-root"><title>Case Study Card icon</title><style>.icon-root{color-scheme:light dark}.s{fill:currentColor}.sd{fill:currentColor;opacity:.22}.a{fill:var(--icon-color-accent)}</style><path class="sd" d="M4 4.2h8a1.8 1.8 0 0 1 1.8 1.8v4.2a1.8 1.8 0 0 1-1.8 1.8H7.3l-3.1 2.1v-2.1H4A1.8 1.8 0 0 1 2.2 10.2V6A1.8 1.8 0 0 1 4 4.2z"/><rect class="s" x="4.4" y="6.2" width="5.4" height="1.2" rx=".6" opacity=".55"/><path class="a icon-signature" d="M11 5.6l.78 1.58 1.74.25-1.26 1.23.3 1.73L11 9.6l-1.56.82.3-1.73-1.26-1.23 1.74-.25z"/></svg>