<svg xmlns="http://www.w3.org/2000/svg" viewBox="0 0 16 16" fill="none" class="icon-root"><title>Press Mentions Grid icon</title><style>.icon-root{color-scheme:light dark}.s{fill:currentColor}.sd{fill:currentColor;opacity:.22}.a{fill:var(--icon-color-accent,#ff8700)}</style><path class="sd" d="M3.4 3.2h7.4a1 1 0 0 1 1 1v8.2a1 1 0 0 1-1 1H4.4a1 1 0 0 1-1-1z"/><rect class="a" x="4.8" y="4.9" width="4.6" height="2.2" rx=".5"/><rect class="s" x="4.8" y="8.3" width="4.6" height="1.1" rx=".55"/><rect class="s" x="4.8" y="10.3" width="3" height="1.1" rx=".55" opacity=".55"/><path class="s" d="M11.8 6h.8a1 1 0 0 1 1 1v4.4a1.2 1.2 0 0 1-1.8 1V6z" opacity=".55"/></svg>
