<svg xmlns="http://www.w3.org/2000/svg" width="280" height="96" viewBox="0 0 280 96" role="img" aria-label="G2">
  <rect width="280" height="96" rx="16" fill="#ffffff"/>
  <circle cx="55" cy="48" r="32" fill="#ff492c"/>
  <path d="M55 18a30 30 0 1 0 0 60 30 30 0 0 0 0-60zm0 13.5a16.5 16.5 0 0 1 14.2 8.1H55v10.8h26.7c.2 1.2.3 2.4.3 3.6 0 14.2-10.8 24.5-25.5 24.5-14.2 0-25.7-11.5-25.7-25.7S42.3 26.5 55 26.5z" fill="#ffffff" opacity=".2"/>
  <text x="100" y="58" font-family="Inter, Arial, sans-serif" font-size="42" font-weight="800" fill="#1f2937">G2</text>
</svg>
