<svg xmlns="http://www.w3.org/2000/svg" width="280" height="96" viewBox="0 0 280 96" role="img" aria-label="Google">
  <rect width="280" height="96" rx="16" fill="#ffffff"/>
  <path d="M75.8 49.1c0-2.3-.2-4.5-.6-6.6H55v12.4h11.6a10 10 0 0 1-4.3 6.5v5.4h7a21.2 21.2 0 0 0 6.5-16.7z" fill="#4285f4"/>
  <path d="M55 76c5.9 0 10.8-1.9 14.4-5.2l-7-5.4a13.2 13.2 0 0 1-19.6-6.9h-7.2v5.6A21.7 21.7 0 0 0 55 76z" fill="#34a853"/>
  <path d="M42.8 58.5a13 13 0 0 1 0-8.4v-5.6h-7.2a21.8 21.8 0 0 0 0 19.6z" fill="#fbbc04"/>
  <path d="M55 37.2c3.2 0 6.1 1.1 8.4 3.3l6.2-6.2A21 21 0 0 0 55 28a21.7 21.7 0 0 0-19.4 12.1l7.2 5.6c1.8-5.3 6.7-8.5 12.2-8.5z" fill="#ea4335"/>
  <text x="100" y="59" font-family="Inter, Arial, sans-serif" font-size="34" font-weight="800" fill="#1f2937">Google</text>
</svg>
