<svg xmlns="http://www.w3.org/2000/svg" viewBox="0 0 16 16" fill="none" class="icon-root"><title>Featured Testimonial icon</title><style>.icon-root{color-scheme:light dark}.s{fill:currentColor}.sd{fill:currentColor;opacity:.22}.a{fill:var(--icon-color-accent)}</style><rect class="sd" x="1.6" y="2.4" width="12.8" height="11.2" rx="2"/><path class="s" d="M5.7 4.5a2 2 0 0 0-2 2v1.7a1.55 1.55 0 1 0 1.55-1.55c-.18 0-.35.03-.5.09A1 1 0 0 1 5.7 5.5zm4 0a2 2 0 0 0-2 2v1.7a1.55 1.55 0 1 0 1.55-1.55c-.18 0-.35.03-.5.09A1 1 0 0 1 9.7 5.5z"/><rect class="a icon-signature" x="10.2" y="10.4" width="3.4" height="2.2" rx=".5"/></svg>