<svg xmlns="http://www.w3.org/2000/svg" viewBox="0 0 16 16" fill="none" class="icon-root"><title>Numbered Feature Steps icon</title><style>.icon-root{color-scheme:light dark}.s{fill:currentColor}.sd{fill:currentColor;opacity:.22}.a{fill:var(--icon-color-accent,#ff8700)}</style><rect class="a" x="2.3" y="3.3" width="3.8" height="3.8" rx="1.1"/><path class="s" d="M4.85 4.05v3.05h-.95V4.95l-.7.45-.42-.72 1.27-.83z"/><rect class="sd" x="2.3" y="8.9" width="3.8" height="3.8" rx="1.1"/><path class="s" d="M3.25 9.7q.32-.3.86-.3.55 0 .9.28.36.27.36.74 0 .35-.2.66-.18.3-.74.74l-.58.47h1.6v.78H3.18v-.66l1.24-1.04q.32-.27.41-.42.1-.16.1-.34 0-.18-.13-.28-.12-.1-.34-.1-.36 0-.66.34z"/><rect class="s" x="7.6" y="4.35" width="5.4" height="1.3" rx=".65"/><rect class="s" x="7.6" y="9.75" width="4.2" height="1.3" rx=".65" opacity=".55"/></svg>