<svg xmlns="http://www.w3.org/2000/svg" viewBox="0 0 16 16" fill="none" class="icon-root"><title>Sparkline KPI Card icon</title><style>.icon-root{color-scheme:light dark}.s{fill:currentColor}.sd{fill:currentColor;opacity:.22}.a{fill:var(--icon-color-accent)}</style><rect class="sd" x="2.4" y="3.4" width="11.2" height="9.2" rx="1.8"/><rect class="s" x="4.2" y="5" width="5.2" height="2.2" rx=".6"/><rect class="s" x="4.2" y="8" width="3" height="1.1" rx=".55" opacity=".55"/><path class="s" d="M4.3 11.97a.52.52 0 0 1-.46-.9l2.3-1.2a.52.52 0 0 1 .53.03l1.97 1.27 2.43-1.86a.52.52 0 1 1 .63.83l-2.69 2.06a.52.52 0 0 1-.6.02L6.5 11.04 4.55 12.04a.52.52 0 0 1-.25-.07Z"/><circle class="a icon-signature" cx="11.7" cy="9" r="1.1"/></svg>