<svg xmlns="http://www.w3.org/2000/svg" viewBox="0 0 16 16" fill="none" class="icon-root"><title>Emergency Contact icon</title><style>.icon-root{color-scheme:light dark}.s{fill:currentColor}.sd{fill:currentColor;opacity:.22}.a{fill:var(--icon-color-accent)}</style><path class="sd" d="M5.2 3.1c.5-.1 1 .2 1.2.7l.7 1.7c.2.5 0 1-.4 1.3l-.7.5a5.7 5.7 0 0 0 2.5 2.5l.5-.7c.3-.4.8-.6 1.3-.4l1.7.7c.5.2.8.7.7 1.2l-.3 1.5c-.1.6-.6 1-1.2 1A8.7 8.7 0 0 1 2.6 4.6c0-.6.4-1.1 1-1.2z"/><path class="a icon-signature" d="M11.1 2.5h1.3v1.6H14v1.3h-1.6V7h-1.3V5.4H9.5V4.1h1.6z"/></svg>
