<svg xmlns="http://www.w3.org/2000/svg" viewBox="0 0 16 16" fill="none" class="icon-root"><title>Line Chart icon</title><style>.icon-root{color-scheme:light dark}.s{fill:currentColor}.sd{fill:currentColor;opacity:.22}.a{fill:var(--icon-color-accent)}</style><path class="sd" d="M3 2.6a.9.9 0 0 1 .9.9v8.2h8.6a.9.9 0 0 1 0 1.8H3a.9.9 0 0 1-.9-.9V3.5a.9.9 0 0 1 .9-.9Z"/><path class="s" d="m5 9.55 2-2 2 1.5 3.05-3.45.97.86-3.7 4.18a.65.65 0 0 1-.88.08L7.46 9.4l-1.74 1.74a.65.65 0 0 1-.9.02l-.02-.02a.65.65 0 0 1 .02-.92Z"/><circle class="a icon-signature" cx="12.5" cy="5.6" r="1.5"/></svg>