<svg xmlns="http://www.w3.org/2000/svg" viewBox="0 0 360 120" role="img" aria-labelledby="title">
  <title id="title">TechCrunch</title>
  <rect width="360" height="120" rx="18" fill="#fff"/>
  <rect x="1" y="1" width="358" height="118" rx="17" fill="none" stroke="#e5e5e5" stroke-width="2"/>
  <path d="M44 33h30v14H59v40H44V33Zm35 0h47v14H94v7h28v13H94v7h32v13H79V33Zm57 27c0-17 13-29 31-29 13 0 23 6 28 16l-13 7c-3-5-8-9-15-9-9 0-16 6-16 15s7 15 16 15c7 0 12-3 15-9l13 7c-5 10-15 16-28 16-18 0-31-12-31-29Zm67-27h15v20h22V33h15v54h-15V67h-22v20h-15V33Z" fill="#111"/>
  <text x="44" y="104" fill="#71717a" font-family="Arial, Helvetica, sans-serif" font-size="16" font-weight="700" letter-spacing=".08em">TECHCRUNCH</text>
</svg>
