<svg xmlns="http://www.w3.org/2000/svg" viewBox="0 0 16 16" fill="none" class="icon-root"><title>Waitlist Signup icon</title><style>.icon-root{color-scheme:light dark}.s{fill:currentColor}.sd{fill:currentColor;opacity:.22}.a{fill:var(--icon-color-accent)}</style><rect class="sd" x="2.6" y="2.6" width="10.8" height="10.8" rx="2"/><rect class="s" x="4.4" y="4.4" width="5.4" height="1.2" rx=".6"/><circle class="sd" cx="5.2" cy="10" r="1.1"/><circle class="sd" cx="5.2" cy="12" r="1.1"/><rect class="s" x="6.6" y="7.6" width="3.2" height="1" rx=".5"/><rect class="s" x="6.6" y="9.6" width="3.2" height="1" rx=".5" opacity=".55"/><rect class="s" x="6.6" y="11.6" width="3.2" height="1" rx=".5" opacity=".55"/><path class="a icon-signature" d="M5.2 6.9a1.1 1.1 0 1 0 0 2.2 1.1 1.1 0 0 0 0-2.2zM6.25 8.5h.75v.75h.75v.75h-.75v.75h-.75v-.75H5.5v-.75h.75z"/></svg>